<mxfile host="app.diagrams.net" modified="2023-05-31T13:22:04.126Z" agent="Mozilla/5.0 (X11; Linux x86_64) AppleWebKit/537.36 (KHTML, like Gecko) Chrome/107.0.0.0 Safari/537.36" version="21.3.6" etag="7cNKIas1XZ91goA2l6Co" type="github">
  <diagram name="Page-1" id="Azz4OZm5YM8hChfglEf2">
    <mxGraphModel>
      <root>
        <mxCell id="0" />
        <mxCell id="1" parent="0" />
      </root>
    </mxGraphModel>
  </diagram>
</mxfile>
